<svg width="160" height="160" viewBox="0 0 160 160" fill="none" xmlns="http://www.w3.org/2000/svg">
<path d="M158.645 22.7241C157.805 22.2286 156.765 22.2132 155.911 22.683L126.119 39.0623L103.44 15.8316C102.884 15.2614 102.114 14.9597 101.311 15.0043C100.514 15.0487 99.7759 15.435 99.2865 16.0639L66.1836 58.5717L44.4374 51.279C43.3372 50.9097 42.1225 51.2679 41.3992 52.1755L23.643 74.4653L1.29048 88.8573C0.50305 89.3639 0.0274572 90.2346 0.0271303 91.1696L2.75462e-07 157.246C-0.000326593 157.976 0.290259 158.677 0.807365 159.193C1.32512 159.71 2.02691 160 2.75844 160H157.241C158.765 160 160 158.767 160 157.247V25.0944C160 24.1206 159.485 23.2193 158.645 22.7241Z" fill="#FAAD3F"/>
<path d="M157.701 22.039C156.376 21.814 155.078 22.5815 154.636 23.8537L131.708 89.8036L127.616 80.6716C127.278 79.9185 126.621 79.3556 125.825 79.1382C125.029 78.9213 124.177 79.0708 123.504 79.5486L110.085 89.0583L104.205 36.9964C104.061 35.7301 103.071 34.7265 101.806 34.5675C100.544 34.4109 99.3346 35.1372 98.8838 36.3289L71.9774 107.424L64.1211 92.7112C63.6537 91.8354 62.7508 91.2782 61.7588 91.2527C60.7543 91.2304 59.8365 91.737 59.3246 92.5873L44.2462 117.63L34.7922 90.1038C34.4235 89.0312 33.4363 88.293 32.3034 88.2437C31.1666 88.1969 30.1225 88.8431 29.662 89.8801L0.237639 156.12C-0.141528 156.974 -0.0630797 157.961 0.4452 158.745C0.954461 159.527 1.82458 160 2.75845 160H157.241C158.765 160 160 158.764 160 157.24V24.7605C160 23.4135 159.028 22.263 157.701 22.039Z" fill="#F48120"/>
</svg>
