<svg width="464" height="157" viewBox="0 0 464 157" fill="none" xmlns="http://www.w3.org/2000/svg">
<rect width="464" height="157" fill="white"/>
<path d="M49.365 90.45C49.365 94.14 48.42 97.395 46.53 100.215C44.67 103.035 41.97 105.24 38.43 106.83C34.92 108.42 30.675 109.215 25.695 109.215C20.625 109.215 16.2 108.465 12.42 106.965C8.64 105.465 5.445 103.44 2.835 100.89L8.55 94.5C10.74 96.54 13.23 98.13 16.02 99.27C18.81 100.41 22.02 100.98 25.65 100.98C29.16 100.98 32.175 100.155 34.695 98.505C37.245 96.825 38.52 94.305 38.52 90.945C38.52 89.145 38.145 87.615 37.395 86.355C36.645 85.065 35.34 83.925 33.48 82.935C31.65 81.915 29.085 80.91 25.785 79.92C19.215 77.97 14.235 75.615 10.845 72.855C7.455 70.095 5.76 66.285 5.76 61.425C5.76 58.065 6.675 55.125 8.505 52.605C10.365 50.085 12.9 48.135 16.11 46.755C19.35 45.345 23.01 44.64 27.09 44.64C31.59 44.64 35.52 45.3 38.88 46.62C42.24 47.91 45.24 49.74 47.88 52.11L42.39 58.32C40.2 56.43 37.845 55.05 35.325 54.18C32.835 53.28 30.3 52.83 27.72 52.83C24.54 52.83 21.87 53.505 19.71 54.855C17.55 56.175 16.47 58.17 16.47 60.84C16.47 62.46 16.905 63.84 17.775 64.98C18.675 66.09 20.175 67.14 22.275 68.13C24.405 69.09 27.315 70.125 31.005 71.235C34.485 72.255 37.605 73.515 40.365 75.015C43.155 76.515 45.345 78.495 46.935 80.955C48.555 83.385 49.365 86.55 49.365 90.45ZM106.975 45.9V87.615C106.975 91.845 106.12 95.58 104.41 98.82C102.73 102.06 100.27 104.61 97.0298 106.47C93.8198 108.3 89.9498 109.215 85.4198 109.215C80.7998 109.215 76.8848 108.315 73.6748 106.515C70.4948 104.685 68.0798 102.15 66.4298 98.91C64.7798 95.67 63.9548 91.905 63.9548 87.615V45.9H74.3948V85.725C74.3948 90.765 75.2648 94.56 77.0048 97.11C78.7448 99.63 81.5498 100.89 85.4198 100.89C89.2898 100.89 92.0948 99.63 93.8348 97.11C95.6048 94.56 96.4898 90.765 96.4898 85.725V45.9H106.975ZM166.565 90.09C166.565 93.54 165.89 96.42 164.54 98.73C163.19 101.04 161.36 102.885 159.05 104.265C156.74 105.615 154.145 106.575 151.265 107.145C148.415 107.715 145.46 108 142.4 108H124.22V45.9H141.185C144.095 45.9 146.9 46.155 149.6 46.665C152.3 47.175 154.715 48.03 156.845 49.23C159.005 50.4 160.715 52.005 161.975 54.045C163.235 56.055 163.865 58.575 163.865 61.605C163.865 64.215 163.325 66.435 162.245 68.265C161.165 70.095 159.74 71.58 157.97 72.72C156.23 73.83 154.37 74.625 152.39 75.105C154.64 75.495 156.845 76.215 159.005 77.265C161.195 78.285 162.995 79.83 164.405 81.9C165.845 83.94 166.565 86.67 166.565 90.09ZM153.29 62.46C153.29 59.34 152.315 57.105 150.365 55.755C148.415 54.405 145.67 53.73 142.13 53.73H134.66V71.685H142.76C146.24 71.685 148.865 70.965 150.635 69.525C152.405 68.055 153.29 65.7 153.29 62.46ZM155.675 90.045C155.675 87.285 155.135 85.14 154.055 83.61C152.975 82.05 151.52 80.97 149.69 80.37C147.86 79.74 145.805 79.425 143.525 79.425H134.66V99.9H143.075C145.055 99.9 147.005 99.66 148.925 99.18C150.875 98.67 152.48 97.71 153.74 96.3C155.03 94.89 155.675 92.805 155.675 90.045ZM224.76 90.45C224.76 94.14 223.815 97.395 221.925 100.215C220.065 103.035 217.365 105.24 213.825 106.83C210.315 108.42 206.07 109.215 201.09 109.215C196.02 109.215 191.595 108.465 187.815 106.965C184.035 105.465 180.84 103.44 178.23 100.89L183.945 94.5C186.135 96.54 188.625 98.13 191.415 99.27C194.205 100.41 197.415 100.98 201.045 100.98C204.555 100.98 207.57 100.155 210.09 98.505C212.64 96.825 213.915 94.305 213.915 90.945C213.915 89.145 213.54 87.615 212.79 86.355C212.04 85.065 210.735 83.925 208.875 82.935C207.045 81.915 204.48 80.91 201.18 79.92C194.61 77.97 189.63 75.615 186.24 72.855C182.85 70.095 181.155 66.285 181.155 61.425C181.155 58.065 182.07 55.125 183.9 52.605C185.76 50.085 188.295 48.135 191.505 46.755C194.745 45.345 198.405 44.64 202.485 44.64C206.985 44.64 210.915 45.3 214.275 46.62C217.635 47.91 220.635 49.74 223.275 52.11L217.785 58.32C215.595 56.43 213.24 55.05 210.72 54.18C208.23 53.28 205.695 52.83 203.115 52.83C199.935 52.83 197.265 53.505 195.105 54.855C192.945 56.175 191.865 58.17 191.865 60.84C191.865 62.46 192.3 63.84 193.17 64.98C194.07 66.09 195.57 67.14 197.67 68.13C199.8 69.09 202.71 70.125 206.4 71.235C209.88 72.255 213 73.515 215.76 75.015C218.55 76.515 220.74 78.495 222.33 80.955C223.95 83.385 224.76 86.55 224.76 90.45ZM265.944 54.315V108H255.504V54.315H236.874V45.9H285.024L283.944 54.315H265.944ZM330.214 93.06H308.029L303.709 108H293.089L312.844 45.9H325.804L345.604 108H334.534L330.214 93.06ZM310.189 85.005H328.009L319.144 54L310.189 85.005ZM382.874 54.315V108H372.434V54.315H353.804V45.9H401.954L400.874 54.315H382.874ZM458.619 90.45C458.619 94.14 457.674 97.395 455.784 100.215C453.924 103.035 451.224 105.24 447.684 106.83C444.174 108.42 439.929 109.215 434.949 109.215C429.879 109.215 425.454 108.465 421.674 106.965C417.894 105.465 414.699 103.44 412.089 100.89L417.804 94.5C419.994 96.54 422.484 98.13 425.274 99.27C428.064 100.41 431.274 100.98 434.904 100.98C438.414 100.98 441.429 100.155 443.949 98.505C446.499 96.825 447.774 94.305 447.774 90.945C447.774 89.145 447.399 87.615 446.649 86.355C445.899 85.065 444.594 83.925 442.734 82.935C440.904 81.915 438.339 80.91 435.039 79.92C428.469 77.97 423.489 75.615 420.099 72.855C416.709 70.095 415.014 66.285 415.014 61.425C415.014 58.065 415.929 55.125 417.759 52.605C419.619 50.085 422.154 48.135 425.364 46.755C428.604 45.345 432.264 44.64 436.344 44.64C440.844 44.64 444.774 45.3 448.134 46.62C451.494 47.91 454.494 49.74 457.134 52.11L451.644 58.32C449.454 56.43 447.099 55.05 444.579 54.18C442.089 53.28 439.554 52.83 436.974 52.83C433.794 52.83 431.124 53.505 428.964 54.855C426.804 56.175 425.724 58.17 425.724 60.84C425.724 62.46 426.159 63.84 427.029 64.98C427.929 66.09 429.429 67.14 431.529 68.13C433.659 69.09 436.569 70.125 440.259 71.235C443.739 72.255 446.859 73.515 449.619 75.015C452.409 76.515 454.599 78.495 456.189 80.955C457.809 83.385 458.619 86.55 458.619 90.45Z" fill="#1E1004"/>
</svg>
