<svg width="400" height="94" viewBox="0 0 400 94" fill="none" xmlns="http://www.w3.org/2000/svg">
<rect width="400" height="94" fill="white"/>
<path d="M39.51 60.7C39.51 65.8 38.1 69.64 35.28 72.22C32.52 74.74 28.53 76 23.31 76H10.53V69.16H24.21C26.43 69.16 28.23 68.5 29.61 67.18C30.99 65.86 31.68 64.27 31.68 62.41V53.05C31.68 51.25 31.2 49.81 30.24 48.73C29.34 47.59 27.96 47.02 26.1 47.02H23.4C18.96 47.02 15.45 45.73 12.87 43.15C10.29 40.51 9 36.7 9 31.72V28.3C9 23.2 10.38 19.39 13.14 16.87C15.96 14.29 19.98 13 25.2 13H38.07V19.84H24.3C22.08 19.84 20.28 20.5 18.9 21.82C17.52 23.14 16.83 24.73 16.83 26.59V33.43C16.83 35.29 17.43 36.85 18.63 38.11C19.83 39.31 21.39 39.91 23.31 39.91H26.01C30.27 39.91 33.57 41.14 35.91 43.6C38.31 46.06 39.51 49.78 39.51 54.76V60.7ZM90.1835 60.7C90.1835 65.8 88.7735 69.64 85.9535 72.22C83.1935 74.74 79.2035 76 73.9835 76H71.7335C66.5135 76 62.4935 74.74 59.6735 72.22C56.9135 69.64 55.5335 65.8 55.5335 60.7V13H63.3635V62.41C63.3635 64.27 64.0535 65.86 65.4335 67.18C66.8135 68.5 68.6135 69.16 70.8335 69.16H74.8835C77.1035 69.16 78.9035 68.5 80.2835 67.18C81.6635 65.86 82.3535 64.27 82.3535 62.41V13H90.1835V60.7ZM138.157 61.78C138.157 66.94 136.957 70.6 134.557 72.76C132.217 74.92 128.317 76 122.857 76H104.857V13H121.777C127.117 13 131.017 14.08 133.477 16.24C135.997 18.4 137.257 22 137.257 27.04V32.17C137.257 36.79 135.607 40.27 132.307 42.61C136.207 44.77 138.157 48.46 138.157 53.68V61.78ZM129.427 26.23C129.427 23.95 128.887 22.3 127.807 21.28C126.787 20.26 125.137 19.75 122.857 19.75H112.687V39.64H122.857C124.717 39.64 126.277 39.04 127.537 37.84C128.797 36.64 129.427 35.05 129.427 33.07V26.23ZM130.327 52.87C130.327 50.89 129.727 49.33 128.527 48.19C127.327 46.99 125.737 46.39 123.757 46.39H112.687V69.25H123.667C125.947 69.25 127.627 68.74 128.707 67.72C129.787 66.64 130.327 64.96 130.327 62.68V52.87Z" fill="#F38020"/>
<path d="M185.321 60.7C185.321 65.8 183.911 69.64 181.091 72.22C178.331 74.74 174.341 76 169.121 76H156.341V69.16H170.021C172.241 69.16 174.041 68.5 175.421 67.18C176.801 65.86 177.491 64.27 177.491 62.41V53.05C177.491 51.25 177.011 49.81 176.051 48.73C175.151 47.59 173.771 47.02 171.911 47.02H169.211C164.771 47.02 161.261 45.73 158.681 43.15C156.101 40.51 154.811 36.7 154.811 31.72V28.3C154.811 23.2 156.191 19.39 158.951 16.87C161.771 14.29 165.791 13 171.011 13H183.881V19.84H170.111C167.891 19.84 166.091 20.5 164.711 21.82C163.331 23.14 162.641 24.73 162.641 26.59V33.43C162.641 35.29 163.241 36.85 164.441 38.11C165.641 39.31 167.201 39.91 169.121 39.91H171.821C176.081 39.91 179.381 41.14 181.721 43.6C184.121 46.06 185.321 49.78 185.321 54.76V60.7ZM214.754 76V19.84H200.444V13H236.894V19.84H222.584V76H214.754ZM258.588 60.07L255.078 76H247.068L262.278 13H272.628L287.568 76H279.558L276.138 60.07H258.588ZM274.698 53.32L267.318 18.94L260.028 53.32H274.698ZM311.961 76V19.84H297.651V13H334.101V19.84H319.791V76H311.961ZM379.735 60.7C379.735 65.8 378.325 69.64 375.505 72.22C372.745 74.74 368.755 76 363.535 76H350.755V69.16H364.435C366.655 69.16 368.455 68.5 369.835 67.18C371.215 65.86 371.905 64.27 371.905 62.41V53.05C371.905 51.25 371.425 49.81 370.465 48.73C369.565 47.59 368.185 47.02 366.325 47.02H363.625C359.185 47.02 355.675 45.73 353.095 43.15C350.515 40.51 349.225 36.7 349.225 31.72V28.3C349.225 23.2 350.605 19.39 353.365 16.87C356.185 14.29 360.205 13 365.425 13H378.295V19.84H364.525C362.305 19.84 360.505 20.5 359.125 21.82C357.745 23.14 357.055 24.73 357.055 26.59V33.43C357.055 35.29 357.655 36.85 358.855 38.11C360.055 39.31 361.615 39.91 363.535 39.91H366.235C370.495 39.91 373.795 41.14 376.135 43.6C378.535 46.06 379.735 49.78 379.735 54.76V60.7Z" fill="#FBAE40"/>
</svg>
