<svg width="546" height="157" viewBox="0 0 546 157" fill="none" xmlns="http://www.w3.org/2000/svg">
<g clip-path="url(#clip0)">
<rect width="546" height="157" fill="none"/>
<path d="M51.12 91.775C51.12 95.645 50.1 99.065 48.06 102.035C46.05 105.005 43.155 107.33 39.375 109.01C35.595 110.69 31.05 111.53 25.74 111.53C19.86 111.53 14.925 110.675 10.935 108.965C6.975 107.225 3.69 105.08 1.08 102.53L8.55 94.25C10.86 96.26 13.41 97.82 16.2 98.93C18.99 100.01 22.05 100.55 25.38 100.55C28.47 100.55 30.975 99.89 32.895 98.57C34.815 97.22 35.775 95.33 35.775 92.9C35.775 90.62 34.965 88.835 33.345 87.545C31.755 86.255 28.785 84.95 24.435 83.63C17.145 81.41 11.955 78.8 8.865 75.8C5.805 72.77 4.275 68.885 4.275 64.145C4.275 60.335 5.325 57.08 7.425 54.38C9.555 51.68 12.405 49.625 15.975 48.215C19.545 46.775 23.475 46.055 27.765 46.055C32.595 46.055 36.855 46.76 40.545 48.17C44.235 49.55 47.43 51.53 50.13 54.11L43.155 62.12C41.055 60.35 38.79 59.045 36.36 58.205C33.93 57.335 31.455 56.9 28.935 56.9C26.115 56.9 23.85 57.425 22.14 58.475C20.43 59.495 19.575 61.01 19.575 63.02C19.575 64.34 19.95 65.45 20.7 66.35C21.45 67.25 22.755 68.105 24.615 68.915C26.475 69.695 29.055 70.61 32.355 71.66C36.285 72.86 39.645 74.3 42.435 75.98C45.255 77.63 47.4 79.715 48.87 82.235C50.37 84.755 51.12 87.935 51.12 91.775ZM108.685 47.63V89.12C108.685 93.38 107.815 97.205 106.075 100.595C104.365 103.955 101.785 106.625 98.3348 108.605C94.9148 110.555 90.6248 111.53 85.4648 111.53C80.2748 111.53 75.9548 110.585 72.5048 108.695C69.0848 106.805 66.5198 104.18 64.8098 100.82C63.0998 97.46 62.2448 93.56 62.2448 89.12V47.63H77.0498V83.63C77.0498 89.24 77.5598 93.47 78.5798 96.32C79.5998 99.14 81.8948 100.55 85.4648 100.55C89.0348 100.55 91.3298 99.14 92.3498 96.32C93.3698 93.47 93.8798 89.24 93.8798 83.63V47.63H108.685ZM168.32 91.73C168.32 95.33 167.63 98.315 166.25 100.685C164.87 103.055 162.98 104.915 160.58 106.265C158.18 107.615 155.435 108.575 152.345 109.145C149.285 109.715 146.06 110 142.67 110H121.97V47.63H141.725C146.015 47.63 149.96 48.11 153.56 49.07C157.19 50.03 160.1 51.68 162.29 54.02C164.51 56.33 165.62 59.51 165.62 63.56C165.62 67.28 164.48 70.25 162.2 72.47C159.92 74.69 157.25 76.19 154.19 76.97C156.41 77.33 158.6 78.035 160.76 79.085C162.95 80.105 164.75 81.635 166.16 83.675C167.6 85.715 168.32 88.4 168.32 91.73ZM150.77 65.045C150.77 62.585 149.99 60.815 148.43 59.735C146.9 58.625 144.515 58.07 141.275 58.07H136.73V72.515H141.725C144.905 72.515 147.2 71.93 148.61 70.76C150.05 69.59 150.77 67.685 150.77 65.045ZM153.11 91.145C153.11 87.845 152.165 85.565 150.275 84.305C148.415 83.045 145.925 82.415 142.805 82.415H136.73V99.245H142.175C144.095 99.245 145.88 99.05 147.53 98.66C149.21 98.24 150.56 97.445 151.58 96.275C152.6 95.105 153.11 93.395 153.11 91.145ZM226.515 91.775C226.515 95.645 225.495 99.065 223.455 102.035C221.445 105.005 218.55 107.33 214.77 109.01C210.99 110.69 206.445 111.53 201.135 111.53C195.255 111.53 190.32 110.675 186.33 108.965C182.37 107.225 179.085 105.08 176.475 102.53L183.945 94.25C186.255 96.26 188.805 97.82 191.595 98.93C194.385 100.01 197.445 100.55 200.775 100.55C203.865 100.55 206.37 99.89 208.29 98.57C210.21 97.22 211.17 95.33 211.17 92.9C211.17 90.62 210.36 88.835 208.74 87.545C207.15 86.255 204.18 84.95 199.83 83.63C192.54 81.41 187.35 78.8 184.26 75.8C181.2 72.77 179.67 68.885 179.67 64.145C179.67 60.335 180.72 57.08 182.82 54.38C184.95 51.68 187.8 49.625 191.37 48.215C194.94 46.775 198.87 46.055 203.16 46.055C207.99 46.055 212.25 46.76 215.94 48.17C219.63 49.55 222.825 51.53 225.525 54.11L218.55 62.12C216.45 60.35 214.185 59.045 211.755 58.205C209.325 57.335 206.85 56.9 204.33 56.9C201.51 56.9 199.245 57.425 197.535 58.475C195.825 59.495 194.97 61.01 194.97 63.02C194.97 64.34 195.345 65.45 196.095 66.35C196.845 67.25 198.15 68.105 200.01 68.915C201.87 69.695 204.45 70.61 207.75 71.66C211.68 72.86 215.04 74.3 217.83 75.98C220.65 77.63 222.795 79.715 224.265 82.235C225.765 84.755 226.515 87.935 226.515 91.775ZM268.149 58.925V110H253.389V58.925H235.884V47.63H286.374L284.844 58.925H268.149ZM328.324 96.545H310.054L306.769 110H291.334L310.414 47.63H328.324L347.404 110H331.609L328.324 96.545ZM312.394 85.835H325.894L319.144 58.25L312.394 85.835ZM385.079 58.925V110H370.319V58.925H352.814V47.63H403.304L401.774 58.925H385.079ZM460.374 91.775C460.374 95.645 459.354 99.065 457.314 102.035C455.304 105.005 452.409 107.33 448.629 109.01C444.849 110.69 440.304 111.53 434.994 111.53C429.114 111.53 424.179 110.675 420.189 108.965C416.229 107.225 412.944 105.08 410.334 102.53L417.804 94.25C420.114 96.26 422.664 97.82 425.454 98.93C428.244 100.01 431.304 100.55 434.634 100.55C437.724 100.55 440.229 99.89 442.149 98.57C444.069 97.22 445.029 95.33 445.029 92.9C445.029 90.62 444.219 88.835 442.599 87.545C441.009 86.255 438.039 84.95 433.689 83.63C426.399 81.41 421.209 78.8 418.119 75.8C415.059 72.77 413.529 68.885 413.529 64.145C413.529 60.335 414.579 57.08 416.679 54.38C418.809 51.68 421.659 49.625 425.229 48.215C428.799 46.775 432.729 46.055 437.019 46.055C441.849 46.055 446.109 46.76 449.799 48.17C453.489 49.55 456.684 51.53 459.384 54.11L452.409 62.12C450.309 60.35 448.044 59.045 445.614 58.205C443.184 57.335 440.709 56.9 438.189 56.9C435.369 56.9 433.104 57.425 431.394 58.475C429.684 59.495 428.829 61.01 428.829 63.02C428.829 64.34 429.204 65.45 429.954 66.35C430.704 67.25 432.009 68.105 433.869 68.915C435.729 69.695 438.309 70.61 441.609 71.66C445.539 72.86 448.899 74.3 451.689 75.98C454.509 77.63 456.654 79.715 458.124 82.235C459.624 84.755 460.374 87.935 460.374 91.775Z" fill="#1E1004"/>
<path d="M491.127 113.167C496.075 113.167 500.086 109.016 500.086 103.897C500.086 98.7768 496.075 94.6264 491.127 94.6264C486.18 94.6264 482.169 98.7768 482.169 103.897C482.169 109.016 486.18 113.167 491.127 113.167Z" fill="#FAAD3F"/>
<path d="M482.169 47V59.0342C511.058 59.0342 534.481 83.2726 534.481 113.167H546.111C546.111 76.6389 517.468 47 482.169 47ZM482.169 71.0683V83.1025C498.196 83.1025 511.222 96.5825 511.222 113.167H522.852C522.852 89.9063 504.647 71.0683 482.169 71.0683Z" fill="#F48120"/>
</g>
<defs>
<clipPath id="clip0">
<rect width="546" height="157" fill="none"/>
</clipPath>
</defs>
</svg>
